<?xml version="1.0" encoding="UTF-8"?>
<!DOCTYPE svg PUBLIC "-//W3C//DTD SVG 1.1//EN" "http://www.w3.org/Graphics/SVG/1.1/DTD/svg11.dtd">
<svg version="1.2" width="200mm" height="200mm" viewBox="0 0 20000 20000" preserveAspectRatio="xMidYMid" fill-rule="evenodd" stroke-width="28.222" stroke-linejoin="round" xmlns="http://www.w3.org/2000/svg" xmlns:ooo="http://xml.openoffice.org/svg/export" xmlns:xlink="http://www.w3.org/1999/xlink" xmlns:presentation="http://sun.com/xmlns/staroffice/presentation" xmlns:smil="http://www.w3.org/2001/SMIL20/" xmlns:anim="urn:oasis:names:tc:opendocument:xmlns:animation:1.0" xml:space="preserve">
 <defs class="ClipPathGroup">
  <clipPath id="presentation_clip_path" clipPathUnits="userSpaceOnUse">
   <rect x="0" y="0" width="20000" height="20000"/>
  </clipPath>
  <clipPath id="presentation_clip_path_shrink" clipPathUnits="userSpaceOnUse">
   <rect x="20" y="20" width="19960" height="19960"/>
  </clipPath>
 </defs>
 <defs class="TextShapeIndex">
  <g ooo:slide="id1" ooo:id-list="id3 id4"/>
 </defs>
 <defs class="EmbeddedBulletChars">
  <g id="bullet-char-template-57356" transform="scale(0.00048828125,-0.00048828125)">
   <path d="M 580,1141 L 1163,571 580,0 -4,571 580,1141 Z"/>
  </g>
  <g id="bullet-char-template-57354" transform="scale(0.00048828125,-0.00048828125)">
   <path d="M 8,1128 L 1137,1128 1137,0 8,0 8,1128 Z"/>
  </g>
  <g id="bullet-char-template-10146" transform="scale(0.00048828125,-0.00048828125)">
   <path d="M 174,0 L 602,739 174,1481 1456,739 174,0 Z M 1358,739 L 309,1346 659,739 1358,739 Z"/>
  </g>
  <g id="bullet-char-template-10132" transform="scale(0.00048828125,-0.00048828125)">
   <path d="M 2015,739 L 1276,0 717,0 1260,543 174,543 174,936 1260,936 717,1481 1274,1481 2015,739 Z"/>
  </g>
  <g id="bullet-char-template-10007" transform="scale(0.00048828125,-0.00048828125)">
   <path d="M 0,-2 C -7,14 -16,27 -25,37 L 356,567 C 262,823 215,952 215,954 215,979 228,992 255,992 264,992 276,990 289,987 310,991 331,999 354,1012 L 381,999 492,748 772,1049 836,1024 860,1049 C 881,1039 901,1025 922,1006 886,937 835,863 770,784 769,783 710,716 594,584 L 774,223 C 774,196 753,168 711,139 L 727,119 C 717,90 699,76 672,76 641,76 570,178 457,381 L 164,-76 C 142,-110 111,-127 72,-127 30,-127 9,-110 8,-76 1,-67 -2,-52 -2,-32 -2,-23 -1,-13 0,-2 Z"/>
  </g>
  <g id="bullet-char-template-10004" transform="scale(0.00048828125,-0.00048828125)">
   <path d="M 285,-33 C 182,-33 111,30 74,156 52,228 41,333 41,471 41,549 55,616 82,672 116,743 169,778 240,778 293,778 328,747 346,684 L 369,508 C 377,444 397,411 428,410 L 1163,1116 C 1174,1127 1196,1133 1229,1133 1271,1133 1292,1118 1292,1087 L 1292,965 C 1292,929 1282,901 1262,881 L 442,47 C 390,-6 338,-33 285,-33 Z"/>
  </g>
  <g id="bullet-char-template-9679" transform="scale(0.00048828125,-0.00048828125)">
   <path d="M 813,0 C 632,0 489,54 383,161 276,268 223,411 223,592 223,773 276,916 383,1023 489,1130 632,1184 813,1184 992,1184 1136,1130 1245,1023 1353,916 1407,772 1407,592 1407,412 1353,268 1245,161 1136,54 992,0 813,0 Z"/>
  </g>
  <g id="bullet-char-template-8226" transform="scale(0.00048828125,-0.00048828125)">
   <path d="M 346,457 C 273,457 209,483 155,535 101,586 74,649 74,723 74,796 101,859 155,911 209,963 273,989 346,989 419,989 480,963 531,910 582,859 608,796 608,723 608,648 583,586 532,535 482,483 420,457 346,457 Z"/>
  </g>
  <g id="bullet-char-template-8211" transform="scale(0.00048828125,-0.00048828125)">
   <path d="M -4,459 L 1135,459 1135,606 -4,606 -4,459 Z"/>
  </g>
  <g id="bullet-char-template-61548" transform="scale(0.00048828125,-0.00048828125)">
   <path d="M 173,740 C 173,903 231,1043 346,1159 462,1274 601,1332 765,1332 928,1332 1067,1274 1183,1159 1299,1043 1357,903 1357,740 1357,577 1299,437 1183,322 1067,206 928,148 765,148 601,148 462,206 346,322 231,437 173,577 173,740 Z"/>
  </g>
 </defs>
 <defs class="TextEmbeddedBitmaps"/>
 <g>
  <g id="id2" class="Master_Slide">
   <g id="bg-id2" class="Background"/>
   <g id="bo-id2" class="BackgroundObjects"/>
  </g>
 </g>
 <g class="SlideGroup">
  <g>
   <g id="container-id1">
    <g id="id1" class="Slide" clip-path="url(#presentation_clip_path)">
     <g class="Page">
      <g class="Graphic">
       <g id="id3">
        <rect class="BoundingBox" stroke="none" fill="none" x="6379" y="1209" width="12531" height="12531"/>
        <path fill="rgb(0,0,0)" stroke="none" d="M 10288,6359 L 9917,7621 9715,6979 9217,6979 9015,7621 8644,6359 8144,6506 8757,8589 9255,8594 9466,7925 9677,8594 10175,8589 10787,6506 10288,6359 Z"/>
        <path fill="rgb(0,0,0)" stroke="none" d="M 13466,6359 L 13095,7621 12893,6979 12395,6979 12193,7621 11822,6359 11322,6506 11935,8589 12433,8594 12644,7925 12855,8594 13353,8589 13966,6506 13466,6359 Z"/>
        <path fill="rgb(0,0,0)" stroke="none" d="M 16644,6359 L 16273,7621 16071,6979 15573,6979 15371,7621 15000,6359 14501,6506 15113,8589 15611,8594 15822,7925 16033,8594 16531,8589 17144,6506 16644,6359 Z"/>
        <path fill="rgb(0,0,0)" stroke="none" d="M 18078,5651 C 17830,4914 17430,4233 16908,3653 16538,4001 16132,4298 15699,4541 15801,4891 15885,5262 15949,5651 L 15422,5651 C 15369,5347 15304,5057 15228,4781 14504,5110 13719,5298 12904,5332 L 12904,5651 12384,5651 12384,5332 C 11569,5298 10784,5110 10060,4781 9984,5057 9919,5347 9866,5651 L 9339,5651 C 9403,5262 9487,4891 9589,4541 9156,4298 8750,4000 8380,3653 7857,4233 7458,4914 7210,5651 L 6392,5651 6392,9297 18896,9297 18896,5651 18078,5651 18078,5651 Z M 18375,8776 L 6913,8776 6913,6172 18375,6172 18375,8776 18375,8776 Z"/>
        <path fill="rgb(0,0,0)" stroke="none" d="M 15533,10918 C 15221,11773 14798,12473 14304,12961 15131,12711 15889,12270 16535,11668 16225,11379 15890,11128 15533,10918 L 15533,10918 Z"/>
        <path fill="rgb(0,0,0)" stroke="none" d="M 12904,9298 L 12904,9617 C 13719,9650 14504,9838 15228,10168 15304,9891 15369,9601 15422,9298 L 12904,9298 12904,9298 Z"/>
        <path fill="rgb(0,0,0)" stroke="none" d="M 15949,9298 C 15885,9686 15801,10057 15699,10407 16132,10651 16538,10948 16908,11296 17430,10715 17830,10034 18078,9298 L 15949,9298 15949,9298 Z"/>
        <path fill="rgb(0,0,0)" stroke="none" d="M 9339,9298 L 7210,9298 C 7458,10034 7858,10715 8380,11296 8750,10948 9156,10651 9589,10407 9487,10057 9403,9686 9339,9298 L 9339,9298 Z"/>
        <path fill="rgb(0,0,0)" stroke="none" d="M 9755,10918 C 9398,11128 9063,11379 8753,11668 9399,12270 10157,12711 10984,12960 10490,12473 10067,11773 9755,10918 L 9755,10918 Z"/>
        <path fill="rgb(0,0,0)" stroke="none" d="M 9866,9298 C 9919,9601 9984,9891 10060,10168 10784,9838 11569,9650 12384,9617 L 12384,9298 9866,9298 9866,9298 Z"/>
        <path fill="rgb(0,0,0)" stroke="none" d="M 10216,10675 C 10706,12084 11500,13025 12384,13181 L 12384,10144 C 11622,10178 10889,10359 10216,10675 L 10216,10675 Z"/>
        <path fill="rgb(0,0,0)" stroke="none" d="M 12904,10144 L 12904,13181 C 13788,13025 14582,12084 15072,10675 14399,10359 13666,10178 12904,10144 L 12904,10144 Z"/>
        <path fill="rgb(0,0,0)" stroke="none" d="M 8753,3280 C 9063,3569 9398,3820 9755,4030 10067,3175 10490,2475 10984,1988 10157,2237 9399,2678 8753,3280 L 8753,3280 Z"/>
        <path fill="rgb(0,0,0)" stroke="none" d="M 14304,1988 C 14798,2475 15221,3175 15533,4030 15890,3820 16225,3569 16535,3280 15889,2678 15131,2237 14304,1988 L 14304,1988 Z"/>
        <path fill="rgb(0,0,0)" stroke="none" d="M 12904,1767 L 12904,4804 C 13666,4770 14399,4589 15072,4273 14582,2864 13788,1924 12904,1767 L 12904,1767 Z"/>
        <path fill="rgb(0,0,0)" stroke="none" d="M 10216,4273 C 10889,4589 11622,4770 12384,4804 L 12384,1767 C 11500,1924 10706,2864 10216,4273 L 10216,4273 Z"/>
       </g>
      </g>
      <g class="Graphic">
       <g id="id4">
        <rect class="BoundingBox" stroke="none" fill="none" x="1209" y="7979" width="11513" height="11513"/>
        <path fill="rgb(0,0,0)" stroke="none" d="M 6034,14766 C 6005,14094 5766,13337 5361,12636 5009,12026 4566,11510 4079,11144 3643,10815 3201,10635 2836,10635 2671,10635 2530,10670 2404,10742 2050,10947 1863,11449 1892,12120 1921,12792 2161,13549 2565,14250 2918,14860 3361,15376 3847,15742 4284,16071 4725,16251 5091,16251 L 5091,16251 C 5256,16251 5397,16216 5523,16144 5877,15939 6064,15437 6034,14766 L 6034,14766 Z M 5335,15818 C 5268,15857 5188,15875 5091,15875 L 5091,15875 C 4807,15875 4445,15721 4073,15442 3627,15106 3219,14629 2891,14062 2516,13412 2295,12717 2268,12104 2246,11593 2370,11196 2592,11068 2659,11030 2739,11011 2836,11011 3120,11011 3482,11165 3853,11444 4299,11780 4708,12257 5035,12824 5411,13474 5632,14169 5659,14782 5681,15293 5557,15690 5335,15818 L 5335,15818 Z"/>
        <path fill="rgb(0,0,0)" stroke="none" d="M 2763,12315 C 2866,12309 2945,12220 2939,12116 2919,11781 2975,11618 2992,11593 3048,11506 3024,11389 2937,11332 2850,11276 2733,11300 2677,11387 2586,11527 2543,11808 2563,12139 2570,12239 2652,12315 2751,12315 2755,12315 2759,12315 2763,12315 L 2763,12315 Z"/>
        <path fill="rgb(0,0,0)" stroke="none" d="M 4475,14909 C 4100,14626 3752,14218 3469,13728 3284,13409 3145,13084 3054,12762 3025,12662 2921,12604 2821,12633 2721,12661 2663,12765 2692,12865 2791,13216 2943,13570 3143,13917 3451,14450 3833,14897 4248,15209 4282,15235 4322,15247 4361,15247 4418,15247 4475,15221 4512,15172 4574,15089 4558,14971 4475,14909 L 4475,14909 Z"/>
        <path fill="rgb(0,0,0)" stroke="none" d="M 5091,15208 C 4988,15208 4903,15292 4903,15396 4903,15500 4988,15584 5091,15584 L 5093,15584 C 5196,15584 5280,15500 5280,15396 5280,15292 5195,15208 5091,15208 L 5091,15208 Z"/>
        <path fill="rgb(0,0,0)" stroke="none" d="M 12401,16371 C 12397,16369 12393,16367 12390,16365 L 8000,13872 C 7948,13126 7682,12306 7244,11548 6748,10688 6083,9990 5372,9583 4629,9157 3920,9096 3376,9411 3376,9411 2073,10163 2071,10165 1526,10479 1224,11124 1222,11979 1219,12798 1491,13723 1988,14584 2485,15444 3149,16142 3860,16549 4290,16795 4708,16920 5090,16920 5368,16920 5627,16854 5856,16721 5858,16720 7259,15906 7306,15871 L 11341,18164 C 11346,18168 11351,18171 11357,18174 11453,18230 11559,18258 11664,18258 11770,18258 11875,18230 11972,18174 L 11976,18172 C 12428,17911 12708,17425 12708,16903 12708,16681 12594,16482 12401,16371 L 12401,16371 Z M 3564,9736 C 3988,9492 4563,9553 5185,9909 5839,10284 6454,10932 6919,11736 7286,12373 7524,13054 7604,13686 7464,13661 7319,13685 7191,13759 L 7187,13762 C 6965,13890 6784,14072 6658,14286 6560,13637 6314,12951 5939,12302 5442,11442 4777,10744 4067,10337 3743,10152 3426,10035 3127,9989 L 3564,9736 3564,9736 Z M 4047,16223 C 3393,15848 2778,15199 2313,14396 1849,13592 1595,12734 1598,11981 1600,11264 1835,10735 2259,10490 2429,10392 2625,10343 2838,10343 3154,10343 3509,10451 3880,10663 4534,11038 5149,11687 5613,12491 6077,13294 6332,14152 6329,14905 6327,15622 6092,16151 5668,16396 5244,16640 4668,16579 4047,16223 L 4047,16223 Z M 6536,15894 C 6586,15767 6624,15630 6652,15484 6696,15524 6746,15558 6802,15585 L 6937,15662 6536,15894 6536,15894 Z M 11787,17846 L 11784,17849 C 11676,17911 11581,17869 11545,17848 11509,17828 11426,17766 11426,17642 11426,17451 11476,17263 11572,17097 11624,17007 11593,16892 11503,16840 11413,16789 11298,16819 11246,16909 11130,17110 11063,17336 11052,17567 10152,17057 6946,15236 6942,15233 6884,15196 6830,15128 6830,15031 6830,14643 7038,14281 7374,14088 L 7378,14085 C 7445,14047 7522,14043 7591,14073 L 11727,16421 C 11682,16480 11674,16562 11714,16630 11766,16720 11881,16751 11971,16699 L 11974,16697 C 12082,16634 12177,16676 12213,16697 12249,16717 12332,16779 12332,16903 12332,17291 12124,17652 11787,17846 L 11787,17846 Z"/>
       </g>
      </g>
     </g>
    </g>
   </g>
  </g>
 </g>
</svg>